# xmcd
#
# Track frame offsets: 
#        150
#        19162
#        37249
#        55743
#        88105
#        107263
#        129568
#        149235
#        167556
#        185907
#        202961
#        220445
#
# Disc length: 3244 seconds
#
# Revision: 3
# Processed by: cddbd v1.5.2PL0 Copyright (c) Steve Scherf et al.
# Submitted via: ExactAudioCopy v1.0b3
#
DISCID=b60caa0c
DTITLE=Otis Taylor - Defintion of a Circle
DYEAR=2006
DGENRE=Blues
TTITLE0=Little Betty
TTITLE1=Black's Mandolin Boogie
TTITLE2=Looking Over Your Fence
TTITLE3=They Wore Blue
TTITLE4=Few Feet Away
TTITLE5=Something In Your Back Pocket
TTITLE6=My Name is General Jackson
TTITLE7=Love and Hesitation
TTITLE8=Maharaja Daughter
TTITLE9=Long Long Life
TTITLE10=Mexican Cowboy
TTITLE11=Lifetime Of Freedom
EXTD=YEAR: 2007
EXTT0=
EXTT1=
EXTT2=
EXTT3=
EXTT4=
EXTT5=
EXTT6=
EXTT7=
EXTT8=
EXTT9=
EXTT10=
EXTT11=
PLAYORDER=
